<svg viewBox='36.99959945678711 21.000099182128906 53.869258880615234 84.36190032958984' xmlns='http://www.w3.org/2000/svg' width='48' height='75'>
            <path xmlns="http://www.w3.org/2000/svg" d="M38.2786,85.7451 C38.2786,84.6405305 39.1740305,83.7451 40.2786,83.7451 C41.3831695,83.7451 42.2786,84.6405305 42.2786,85.7451 C42.2786,94.1410834 48.8792838,101.093993 57.1538817,101.355101 C61.9692183,101.507539 66.4742023,99.109333 69.496602,94.9200049 C71.0406112,92.7796833 72.2010556,90.5629417 73.9886035,86.6014922 C76.3246635,81.4245059 78.518801,75.9591354 80.718958,69.9097656 C80.9594753,69.2481768 80.9782188,69.197032 81.6324314,67.414464 C84.362974,59.9744093 85.5142997,56.348229 86.3131577,51.9736965 C87.4256922,45.8834743 86.8963022,40.6060679 84.4252834,36.4342949 C84.39495,36.3847415 84.39495,36.3847415 84.3682873,36.3405798 C84.3433306,36.299119 84.3433306,36.299119 84.3228411,36.2651038 C80.1264844,29.3356362 72.438608,25.0001 64.3426,25.0001 C51.4511695,25.0001 40.9996,35.4516695 40.9996,48.3431 C40.9996,49.4476695 40.1041695,50.3431 38.9996,50.3431 C37.8950305,50.3431 36.9996,49.4476695 36.9996,48.3431 C36.9996,33.2425305 49.2420305,21.0001 64.3426,21.0001 C73.8383468,21.0001 82.8234766,26.0672153 87.7457289,34.1953618 C87.7716194,34.238331 87.7716194,34.238331 87.7939127,34.2753702 C87.8145,34.3094585 87.8145,34.3094585 87.8319166,34.3379051 L87.8493302,34.3667435 C90.8947523,39.5075845 91.5192869,45.7334723 90.2480631,52.6923895 C89.3950695,57.3633676 88.1953332,61.1420204 85.387525,68.7926048 C84.7353471,70.5696288 84.7166851,70.620551 84.4781483,71.2766921 C82.2454898,77.4154254 80.0146162,82.9723018 77.634599,88.2467024 C75.7432589,92.4381696 74.4843792,94.8429473 72.7405511,97.2602601 C68.9663597,102.491642 63.2227473,105.549225 57.0275205,105.353105 C46.575901,105.023299 38.2786,96.283238 38.2786,85.7451 Z M78.8033153,56.9256791 C78.4662674,57.9775691 77.3403108,58.5570631 76.2884209,58.2200153 C75.2365309,57.8829674 74.6570369,56.7570108 74.9940847,55.7051209 C76.9515204,49.5961754 76.9724812,45.2705912 74.4867124,41.5869155 C72.5793907,38.7596721 69.3766525,36.8208147 65.9976968,36.4504831 C62.8778934,36.1083811 59.5228188,37.0587307 56.7122526,39.0251242 C52.330685,42.0907394 50.2624954,46.6588076 49.1262406,54.1902863 C48.9910373,55.084841 49.5301795,55.9807249 51.4514715,58.0994091 C51.5438813,58.201303 51.5438813,58.201303 51.6371328,58.3042323 C53.4280262,60.2822089 54.2130014,61.3711415 54.6323005,62.9201148 C55.6699264,66.7556462 53.6145811,71.3587146 50.2845523,74.0173666 C49.4213497,74.7065364 48.1629032,74.565455 47.4737334,73.7022523 C46.7845636,72.8390497 46.925645,71.5806032 47.7888477,70.8914334 C49.9767075,69.1446743 51.3440267,66.0824814 50.7711798,63.9649819 C50.5770471,63.2478174 50.0297179,62.4885519 48.671956,60.9889532 C48.5807044,60.8882313 48.5807044,60.8882313 48.4883829,60.7864345 C45.7290138,57.7435699 44.7816861,56.1694106 45.1710797,53.5930415 C46.454861,45.0837062 48.9489359,39.5749735 54.4191678,35.7476615 C57.9971893,33.2443231 62.3114137,32.0222873 66.433594,32.4743049 C70.9831309,32.9729314 75.2385726,35.5490691 77.802546,39.3496745 C81.1240511,44.2718326 81.0974276,49.7660022 78.8033153,56.9256791 Z" fill="#000000" fill-rule="evenodd"/>
        </svg>